# xmcd
#
# Track frame offsets:
#	150
#	13591
#	26181
#	38909
#	51819
#	62613
#	75532
#	90689
#	100964
#	114499
#	127091
#	138319
#	153238
#	165758
#	180625
#	190665
#	201865
#	219514
#	233164
#	243216
#	252949
#	265078
#
# Disc length: 3723 seconds
#
# Revision: 8
# Processed by: cddbd v1.5.2PL0 Copyright (c) Steve Scherf et al.
# Submitted via: EasyCDDAExtractor 15.3.0.1
#
DISCID=210e8916
DTITLE=Cher - The Best Of Cher - The Imperial Recordings - 1965-1968 - CD 1
DYEAR=2007
DGENRE=Pop
TTITLE0=All I Really Want To Do
TTITLE1=I Go To Sleep
TTITLE2=Needles And Pins
TTITLE3=Don't Think Twice
TTITLE4=She Thinks I Still Care
TTITLE5=Dream Baby
TTITLE6=The Bells Of Rhymney
TTITLE7=Girl Don't Come
TTITLE8=See See Rider
TTITLE9=Come And Stay With Me
TTITLE10=Cry Myself To Sleep
TTITLE11=Blowin' In The Wind
TTITLE12=Bang Bang (My Baby Shot Me Down)
TTITLE13=Where Do You Go
TTITLE14=Our Day Will Come
TTITLE15=Elusive Butterfly
TTITLE16=Like A Rolling Stone
TTITLE17=Come To Your Window
TTITLE18=The Girl From Ipanema
TTITLE19=It's Not Unusual
TTITLE20=Milord
TTITLE21=Sunny
EXTD=\n
EXTT0=
EXTT1=
EXTT2=
EXTT3=
EXTT4=
EXTT5=
EXTT6=
EXTT7=
EXTT8=
EXTT9=
EXTT10=
EXTT11=
EXTT12=
EXTT13=
EXTT14=
EXTT15=
EXTT16=
EXTT17=
EXTT18=
EXTT19=
EXTT20=
EXTT21=
PLAYORDER=
